<?xml version="1.0" standalone="no"?>
<!DOCTYPE svg PUBLIC "-//W3C//DTD SVG 20010904//EN"
 "http://www.w3.org/TR/2001/REC-SVG-20010904/DTD/svg10.dtd">
<svg version="1.0" xmlns="http://www.w3.org/2000/svg"
 width="496.000000pt" height="620.000000pt" viewBox="0 0 496.000000 620.000000"
 preserveAspectRatio="xMidYMid meet">

<g transform="translate(0.000000,620.000000) scale(0.100000,-0.100000)"
fill="#000000" stroke="none">
<path d="M2237 6186 c-3 -8 -3 -17 0 -20 3 -3 5 -71 5 -151 0 -98 3 -143 10
-139 6 4 8 1 4 -7 -3 -8 -9 -21 -12 -31 -3 -9 -15 -19 -27 -22 -26 -7 -19 -15
16 -18 14 -1 23 -6 21 -10 -3 -5 -9 -6 -14 -3 -5 3 -12 1 -15 -5 -5 -8 -11 -8
-20 0 -13 11 -45 4 -45 -11 0 -5 4 -8 9 -6 5 1 8 -2 8 -8 -1 -5 -13 -10 -27
-10 -19 0 -26 -6 -28 -24 -5 -32 -39 -84 -96 -146 -25 -27 -46 -59 -46 -70 0
-11 -13 -35 -29 -54 -17 -19 -29 -39 -28 -45 1 -6 -4 -10 -12 -8 -10 2 -12 -5
-7 -33 5 -27 1 -44 -19 -78 -68 -117 -96 -267 -92 -500 l2 -164 22 61 c13 34
32 106 44 160 29 134 140 371 202 431 38 36 47 41 80 37 20 -2 34 -8 31 -13
-3 -5 0 -9 5 -9 6 0 11 -7 11 -15 0 -19 10 -19 37 0 14 10 24 12 28 5 4 -6 10
-8 15 -5 5 3 28 -5 52 -17 24 -13 53 -24 66 -25 78 -9 116 -24 134 -52 12 -19
13 -19 35 6 14 15 30 22 39 19 8 -3 29 1 45 10 29 15 31 14 36 -5 4 -16 11
-19 30 -15 19 5 32 -2 68 -39 25 -25 45 -49 45 -53 0 -5 14 -22 30 -38 16 -16
32 -37 35 -47 4 -11 12 -19 19 -19 7 0 20 -16 29 -35 9 -19 21 -35 27 -35 14
0 36 -49 43 -96 5 -28 2 -47 -9 -63 -15 -20 -17 -21 -33 -6 -79 76 -204 102
-357 74 -44 -8 -66 -18 -86 -39 -28 -31 -78 -129 -78 -154 0 -9 -13 -42 -30
-74 -32 -63 -35 -91 -20 -160 9 -38 8 -47 -10 -69 -13 -17 -17 -30 -11 -36 13
-13 30 0 41 29 5 13 14 24 20 24 17 0 24 -31 11 -52 -8 -14 -9 -24 0 -39 16
-31 3 -34 -22 -5 -15 17 -33 26 -51 26 -17 0 -27 4 -23 10 3 6 -1 10 -9 10 -9
0 -16 -7 -16 -15 0 -19 -37 -38 -58 -29 -9 4 -21 6 -26 5 -5 -1 -24 13 -43 31
-30 29 -35 30 -48 17 -14 -14 -13 -20 5 -61 11 -26 26 -48 33 -51 7 -2 0 -10
-16 -17 -27 -13 -32 -39 -6 -31 51 14 58 13 72 -16 9 -16 27 -35 42 -41 31
-15 25 -29 -18 -40 -25 -7 -39 -5 -62 9 -35 21 -87 13 -157 -22 -22 -11 -46
-18 -53 -15 -16 6 -8 51 11 67 21 18 17 27 -11 21 -34 -6 -39 -16 -41 -95 l-3
-69 27 6 c88 21 196 28 236 15 22 -7 49 -11 60 -10 20 3 76 -18 76 -28 0 -3
-8 -16 -18 -29 -14 -18 -22 -21 -47 -13 -33 9 -195 15 -195 7 0 -14 26 -62 37
-69 7 -4 13 -15 13 -22 0 -9 9 -15 22 -15 12 0 29 -6 37 -13 9 -7 43 -21 76
-31 60 -18 165 -88 165 -110 0 -6 -14 -19 -32 -29 -30 -17 -31 -17 -54 4 -20
19 -29 20 -71 14 -26 -5 -52 -7 -58 -6 -5 2 -27 4 -48 6 -20 1 -43 8 -51 14
-20 16 -44 17 -89 2 -21 -7 -44 -10 -52 -7 -8 3 -35 45 -60 93 -25 48 -59 106
-75 128 -16 22 -35 57 -41 78 -7 20 -17 41 -23 46 -7 6 -45 -12 -101 -46 -49
-31 -130 -73 -180 -95 -49 -22 -124 -58 -165 -80 -68 -37 -137 -73 -355 -187
-38 -21 -88 -45 -110 -55 -62 -27 -84 -41 -129 -84 -22 -22 -64 -55 -92 -73
-99 -67 -231 -234 -294 -375 -80 -178 -150 -512 -150 -720 0 -34 -9 -87 -20
-120 -23 -71 -24 -94 -6 -176 24 -107 29 -230 12 -290 -8 -29 -22 -105 -31
-168 -8 -63 -20 -146 -26 -185 -5 -38 -12 -115 -15 -170 -3 -55 -10 -103 -16
-106 -6 -4 -8 -18 -4 -33 5 -19 2 -26 -8 -26 -7 0 -16 9 -19 20 -3 12 -14 20
-26 20 -24 0 -41 -34 -41 -81 0 -32 17 -37 66 -19 15 6 29 9 31 6 9 -9 -20
-138 -35 -152 -13 -14 -13 -17 -1 -25 10 -6 10 -9 2 -9 -7 0 -13 -4 -13 -10 0
-5 7 -10 15 -10 8 0 15 -6 15 -14 0 -10 -11 -14 -37 -13 l-38 2 -3 -45 c-3
-33 1 -47 14 -57 12 -9 15 -20 10 -47 -7 -37 16 -111 37 -119 7 -2 39 -1 72 4
33 4 146 8 250 8 289 1 395 -19 395 -74 0 -13 -10 -31 -21 -39 -18 -12 -23
-29 -28 -86 -4 -39 -4 -75 0 -81 9 -15 61 -25 239 -49 85 -12 198 -27 250 -35
236 -35 693 -75 707 -61 4 4 3 14 -2 22 -8 12 -32 17 -89 20 -98 5 -116 19
-148 113 -32 93 -31 232 1 314 31 79 98 175 149 214 69 52 113 53 261 5 117
-38 138 -41 296 -51 166 -9 217 -19 239 -45 17 -20 260 -61 356 -60 76 0 98 6
210 47 69 26 151 59 182 74 l58 27 54 -18 c48 -15 226 -94 355 -159 24 -12 99
-75 165 -140 l120 -118 71 6 c131 11 400 25 475 25 73 0 74 1 46 15 -15 8 -42
15 -60 15 -17 1 -65 7 -106 15 -92 18 -89 18 -177 35 -40 7 -73 17 -73 21 0
17 21 19 50 4 41 -21 386 -79 487 -81 45 -1 89 -4 97 -7 10 -4 16 -1 16 8 0 9
-10 15 -25 15 -13 0 -42 6 -62 14 -21 8 -51 17 -68 21 -32 7 -55 22 -55 36 0
5 17 0 38 -11 45 -24 88 -30 85 -13 -2 7 8 15 22 19 14 3 25 10 25 15 0 5 9 9
20 9 20 0 20 7 20 2880 l0 2880 -1359 0 c-1157 0 -1360 -2 -1364 -14z m583
-1542 c21 -21 22 -27 10 -48 -7 -15 -10 -38 -6 -58 6 -30 9 -33 49 -37 106 -9
102 -11 102 36 1 50 10 64 19 28 4 -14 11 -23 16 -20 4 3 7 -10 4 -29 -2 -22
1 -40 11 -50 8 -8 15 -19 15 -25 0 -6 5 -11 10 -11 29 0 -22 -128 -64 -159
-17 -12 -17 -15 -2 -23 17 -10 22 -48 6 -48 -5 0 -10 4 -10 10 0 5 -11 0 -25
-12 -27 -23 -33 -47 -12 -49 6 -1 -4 -4 -23 -8 -30 -5 -36 -11 -38 -36 -2 -16
-13 -36 -24 -44 -21 -14 -21 -14 3 -23 l24 -10 -30 -12 c-25 -11 -32 -10 -41
2 -14 19 -46 8 -38 -13 11 -27 -5 -68 -24 -63 -22 6 -45 -18 -39 -41 3 -14 -1
-17 -19 -13 -18 3 -24 0 -24 -14 0 -15 -2 -16 -9 -5 -11 17 -3 48 15 55 25 10
16 29 -11 22 -19 -5 -25 -2 -25 10 0 24 -39 84 -55 84 -7 0 -18 7 -25 15 -7 8
-21 15 -31 15 -17 0 -19 7 -17 53 1 28 2 100 0 158 -2 103 -3 106 -33 136 -27
28 -29 36 -23 70 4 21 13 51 21 66 12 24 19 28 41 22 15 -3 29 -11 31 -16 1
-6 8 -3 15 7 10 14 15 14 27 3 8 -8 26 -15 42 -17 22 -2 27 1 27 18 0 13 4 18
11 15 14 -9 59 34 59 56 0 38 10 48 40 38 15 -6 38 -21 50 -35z m574 -400 c9
-3 16 -12 16 -20 0 -20 -13 -17 -28 6 -13 22 -12 23 12 14z m31 -64 c3 -5 1
-10 -4 -10 -6 0 -11 5 -11 10 0 6 2 10 4 10 3 0 8 -4 11 -10z m-25 -104 c0 -3
-4 -8 -10 -11 -5 -3 -10 -1 -10 4 0 6 5 11 10 11 6 0 10 -2 10 -4z m-35 -36
c-3 -5 -11 -10 -16 -10 -6 0 -7 5 -4 10 3 6 11 10 16 10 6 0 7 -4 4 -10z
m-908 -52 c-3 -8 -6 -5 -6 6 -1 11 2 17 5 13 3 -3 4 -12 1 -19z m416 -38 c14
0 17 -5 11 -22 -3 -13 -11 -28 -15 -34 -6 -8 -4 -14 6 -18 10 -4 15 1 15 14 0
23 10 26 28 8 9 -9 8 -16 -5 -30 -20 -22 -61 -24 -69 -3 -4 11 -14 13 -33 8
-24 -6 -25 -5 -11 11 8 10 25 22 38 27 13 5 20 14 17 19 -4 6 -10 8 -15 5 -11
-7 -40 5 -40 16 0 4 7 6 15 3 9 -4 15 -1 15 7 0 10 3 10 12 1 7 -7 20 -12 31
-12z m-93 -41 c0 -6 -4 -7 -10 -4 -5 3 -10 11 -10 16 0 6 5 7 10 4 6 -3 10
-11 10 -16z m450 -11 c30 -36 60 -91 60 -111 0 -12 7 -47 16 -77 9 -31 17
-104 18 -165 2 -66 8 -120 16 -135 7 -13 16 -35 21 -49 5 -18 8 -20 8 -8 1 10
5 16 11 12 5 -3 7 -12 4 -19 -3 -7 2 -16 10 -19 9 -4 16 -12 16 -18 0 -7 27
-71 59 -143 68 -149 77 -178 63 -202 -7 -13 -5 -23 9 -37 10 -11 16 -23 13
-26 -4 -3 -9 0 -11 7 -3 6 -9 12 -14 12 -5 0 -4 -10 3 -22 7 -13 11 -29 10
-35 -2 -7 3 -13 10 -13 23 0 47 -55 49 -109 1 -28 6 -51 11 -51 4 0 8 5 8 12
0 6 3 9 6 6 4 -5 -6 -30 -24 -58 -2 -2 -7 2 -12 10 -8 13 -12 12 -24 -5 -9
-11 -16 -15 -16 -10 0 6 -9 16 -21 23 -18 12 -20 11 -11 -4 5 -9 7 -25 5 -35
-4 -14 0 -19 16 -19 25 0 27 -12 6 -30 -9 -7 -14 -18 -12 -23 2 -6 -5 -19 -15
-29 -59 -59 -16 -204 75 -253 45 -24 112 -14 104 16 -6 22 8 26 16 4 3 -7 -2
-24 -11 -35 -16 -20 -24 -21 -76 -15 -44 6 -67 15 -92 37 -44 39 -43 28 2 -22
25 -28 32 -41 23 -44 -37 -11 -79 -14 -84 -6 -3 5 -12 7 -19 4 -8 -3 -17 0
-22 7 -4 7 -3 14 3 16 13 5 5 43 -8 43 -5 0 -9 -7 -9 -15 0 -8 -7 -15 -15 -15
-18 0 -19 -5 -4 -32 9 -16 8 -22 -2 -29 -10 -6 -16 -1 -21 18 -5 19 -1 34 19
59 17 23 23 39 18 51 -8 17 -8 17 -12 0 -3 -11 -13 -27 -24 -38 -19 -19 -19
-19 -19 3 0 12 9 32 21 44 12 13 18 28 14 34 -9 15 -67 -49 -60 -67 2 -7 -2
-16 -9 -20 -7 -5 -16 -15 -19 -23 -4 -8 -4 0 -1 19 4 19 17 46 30 60 26 28 39
59 30 68 -3 4 -1 12 5 19 7 8 7 14 -1 19 -17 11 -49 -37 -44 -65 l5 -25 -17
23 c-22 30 -44 28 -44 -3 0 -27 -15 -34 -24 -10 -9 24 -36 18 -36 -7 -1 -20
-3 -19 -18 9 -9 17 -25 46 -36 65 -23 42 -96 304 -105 382 -4 33 -12 61 -19
64 -7 2 -12 9 -12 15 0 6 -26 36 -59 67 -32 31 -60 62 -62 68 -2 6 -36 46 -75
89 -38 43 -81 94 -95 113 -13 19 -41 54 -61 77 -30 34 -38 51 -38 82 0 22 -5
41 -10 43 -6 2 -13 19 -16 38 -7 50 51 146 111 182 24 15 54 43 67 63 13 20
34 38 48 41 46 9 74 29 104 73 l29 43 51 -6 c44 -5 60 -1 111 24 66 33 89 37
105 18z m-800 -8 c0 -5 -4 -10 -10 -10 -5 0 -10 5 -10 10 0 6 5 10 10 10 6 0
10 -4 10 -10z m340 -40 c0 -5 -4 -10 -10 -10 -5 0 -10 5 -10 10 0 6 5 10 10
10 6 0 10 -4 10 -10z m-693 -1032 c-3 -8 -6 -5 -6 6 -1 11 2 17 5 13 3 -3 4
-12 1 -19z m1713 -452 c0 -3 -4 -8 -10 -11 -5 -3 -10 -1 -10 4 0 6 5 11 10 11
6 0 10 -2 10 -4z m-480 -32 c0 -8 -5 -12 -10 -9 -6 4 -8 11 -5 16 9 14 15 11
15 -7z m-40 -59 c0 -8 -4 -15 -10 -15 -5 0 -10 7 -10 15 0 8 5 15 10 15 6 0
10 -7 10 -15z m-63 -17 c-3 -8 -6 -5 -6 6 -1 11 2 17 5 13 3 -3 4 -12 1 -19z
m143 -18 c0 -5 -4 -10 -10 -10 -5 0 -10 5 -10 10 0 6 5 10 10 10 6 0 10 -4 10
-10z m-74 -40 c1 -17 -3 -30 -7 -30 -11 0 -12 44 -2 53 3 4 7 7 7 7 1 0 1 -14
2 -30z m59 0 c3 -11 15 -20 26 -20 10 0 19 -4 19 -9 0 -5 9 -7 20 -4 11 3 20
1 20 -5 0 -5 14 -15 31 -22 26 -11 42 -11 103 5 39 10 79 22 89 27 24 12 34 3
18 -16 -11 -12 -7 -16 23 -22 37 -6 45 -21 24 -42 -17 -17 -2 -27 17 -12 14
12 15 10 10 -13 -5 -18 -3 -27 5 -27 7 0 10 -6 7 -13 -3 -8 -2 -19 2 -26 6 -9
20 -6 54 12 25 14 43 28 40 31 -4 3 -1 6 5 6 6 0 14 -5 18 -12 22 -36 -283
-219 -414 -249 -91 -20 -167 11 -193 79 -13 34 -38 152 -46 216 l-6 49 32 -5
c17 -2 31 -2 31 2 0 3 14 11 31 17 22 9 30 17 25 28 -3 8 -9 22 -12 30 -3 8
-1 15 4 15 6 0 14 -9 17 -20z m-110 -10 c3 -5 1 -10 -4 -10 -6 0 -11 5 -11 10
0 6 2 10 4 10 3 0 8 -4 11 -10z m-534 -193 c-20 -117 -31 -145 -31 -77 0 39
39 194 47 187 1 -2 -6 -51 -16 -110z m-149 -964 c19 -17 24 -59 9 -82 -7 -10
-5 -18 4 -25 8 -6 21 -39 29 -73 16 -73 13 -78 -55 -88 l-46 -7 -11 58 c-16
76 -15 94 3 94 12 0 11 7 -5 38 -17 32 -18 44 -9 70 8 25 17 32 37 32 14 0 34
-7 44 -17z m43 -293 c-3 -5 -24 -10 -46 -10 -24 0 -38 4 -34 10 3 6 24 10 46
10 24 0 38 -4 34 -10z m-2532 -88 c-6 -15 -12 -19 -22 -13 -11 7 -10 12 5 28
22 22 28 16 17 -15z m4635 -227 c48 -12 18 -24 -70 -27 -100 -4 -228 9 -228
23 0 14 243 18 298 4z"/>
<path d="M2800 4080 c0 -5 5 -10 11 -10 5 0 7 5 4 10 -3 6 -8 10 -11 10 -2 0
-4 -4 -4 -10z"/>
<path d="M3510 2984 c0 -8 5 -12 10 -9 6 3 10 10 10 16 0 5 -4 9 -10 9 -5 0
-10 -7 -10 -16z"/>
<path d="M3465 2645 c-9 -22 -14 -66 -8 -77 4 -8 53 39 53 52 0 6 -6 10 -14
10 -8 0 -16 8 -18 18 -3 15 -5 15 -13 -3z"/>
<path d="M3417 2573 c-4 -3 -7 -15 -7 -25 0 -10 -5 -18 -11 -18 -5 0 -7 -4 -4
-10 3 -5 2 -10 -2 -10 -5 0 -9 -9 -10 -20 -1 -16 3 -14 32 13 27 25 32 34 21
42 -7 6 -11 16 -9 23 5 13 0 16 -10 5z"/>
<path d="M3447 2506 c-11 -17 -13 -32 -7 -57 11 -46 37 -106 50 -114 14 -8 13
-3 -7 36 -11 21 -18 58 -18 97 0 34 -1 62 -1 62 -1 0 -9 -11 -17 -24z"/>
<path d="M3390 2425 c0 -15 93 -195 100 -195 22 0 16 24 -26 109 -25 51 -52
91 -60 91 -8 0 -14 -2 -14 -5z"/>
<path d="M3252 2000 c0 -14 2 -19 5 -12 2 6 2 18 0 25 -3 6 -5 1 -5 -13z"/>
<path d="M2120 5796 c0 -14 5 -26 10 -26 6 0 10 7 10 15 0 8 0 18 1 22 0 4 -4
9 -10 11 -6 2 -11 -8 -11 -22z"/>
<path d="M2310 5210 c8 -5 24 -10 34 -10 26 0 18 6 -19 14 -22 5 -26 4 -15 -4z"/>
<path d="M2395 5200 c3 -5 8 -10 11 -10 2 0 4 5 4 10 0 6 -5 10 -11 10 -5 0
-7 -4 -4 -10z"/>
<path d="M2374 5158 c-3 -4 13 -8 36 -8 23 0 39 4 35 9 -7 12 -64 11 -71 -1z"/>
<path d="M2006 4947 c-55 -31 -62 -47 -43 -87 13 -26 15 -41 7 -77 -6 -24 -8
-48 -5 -52 7 -13 45 -21 45 -10 0 15 30 10 36 -6 16 -41 84 1 84 52 0 35 17
28 77 -33 36 -38 57 -53 62 -45 4 6 15 9 24 5 34 -13 35 100 1 171 -20 43
-116 92 -194 99 -44 4 -63 1 -94 -17z"/>
<path d="M2166 4641 c-3 -5 1 -11 9 -15 18 -6 45 2 45 15 0 12 -47 12 -54 0z"/>
<path d="M1677 4359 c-38 -4 -71 -10 -73 -12 -6 -6 81 -26 126 -30 31 -2 35 1
38 26 2 18 -1 27 -10 26 -7 -1 -44 -5 -81 -10z"/>
<path d="M260 4290 c-80 -4 -171 -8 -202 -9 l-58 -1 0 -50 c0 -57 0 -57 85
-34 33 8 93 24 134 35 41 10 151 28 244 39 94 11 173 22 175 25 7 6 -192 3
-378 -5z"/>
<path d="M1747 4247 c-3 -8 -2 -29 3 -48 8 -33 8 -33 9 14 1 48 -3 58 -12 34z"/>
<path d="M1700 4210 c0 -5 5 -10 11 -10 5 0 7 5 4 10 -3 6 -8 10 -11 10 -2 0
-4 -4 -4 -10z"/>
<path d="M1601 4184 c0 -11 3 -14 6 -6 3 7 2 16 -1 19 -3 4 -6 -2 -5 -13z"/>
<path d="M75 1261 c-3 -6 -12 -8 -20 -5 -22 9 -48 -11 -51 -41 -3 -26 -2 -26
39 -20 54 9 55 10 55 40 0 27 -13 41 -23 26z"/>
<path d="M0 1096 c0 -9 5 -16 10 -16 6 0 10 4 10 9 0 6 -4 13 -10 16 -5 3 -10
-1 -10 -9z"/>
<path d="M0 473 c0 -23 5 -33 15 -33 18 0 18 1 0 36 l-15 29 0 -32z"/>
<path d="M3613 425 c27 -25 88 -64 135 -87 48 -23 105 -56 127 -73 56 -42 159
-135 163 -146 7 -19 -26 -8 -66 21 -23 17 -48 30 -56 30 -8 0 -22 10 -30 21
l-14 21 -27 -25 c-20 -18 -25 -30 -20 -46 9 -29 35 -41 65 -29 15 6 20 12 13
15 -7 3 -13 9 -13 15 0 19 28 -12 39 -43 7 -21 7 -29 -1 -29 -6 0 -8 -3 -5 -6
3 -4 0 -16 -8 -28 -8 -11 -15 -24 -15 -28 0 -20 234 5 258 27 15 13 6 45 -13
45 -8 0 -22 11 -32 24 -10 13 -28 26 -39 30 -10 3 -51 36 -89 73 -103 99 -143
133 -158 133 -8 0 -22 8 -31 19 -9 10 -32 21 -50 24 -19 3 -64 24 -101 46 -37
23 -70 41 -74 41 -3 -1 16 -21 42 -45z"/>
<path d="M4097 256 c-10 -8 -15 -20 -11 -30 4 -11 1 -16 -10 -16 -17 0 -22
-25 -7 -34 5 -3 14 7 21 24 6 16 21 30 32 32 16 3 17 5 6 20 -11 14 -16 15
-31 4z"/>
<path d="M3440 245 c0 -8 31 -38 70 -65 38 -28 95 -80 127 -116 57 -63 60 -65
102 -62 l42 3 -21 23 c-12 13 -33 22 -50 22 -33 0 -49 17 -26 26 18 7 22 24 6
24 -5 0 -44 26 -87 58 -79 59 -145 102 -157 102 -3 0 -6 -7 -6 -15z"/>
<path d="M4919 216 c-2 -2 -148 -11 -324 -21 -353 -18 -411 -25 -407 -44 1 -7
-3 -20 -10 -28 -11 -14 1 -14 107 -8 66 3 158 12 205 18 47 6 123 12 170 12
47 0 133 1 193 3 l107 2 0 35 c0 27 -4 35 -18 35 -10 0 -21 -2 -23 -4z"/>
<path d="M3300 71 c0 -5 21 -24 47 -41 48 -32 44 -17 -7 27 -27 24 -40 28 -40
14z"/>
<path d="M2530 10 c0 -6 28 -10 68 -9 62 1 64 2 27 10 -56 11 -95 11 -95 -1z"/>
</g>
</svg>
